<?xml version="1.0" encoding="utf-8"?>
<!-- Generator: Adobe Illustrator 16.0.0, SVG Export Plug-In . SVG Version: 6.00 Build 0)  -->
<!DOCTYPE svg PUBLIC "-//W3C//DTD SVG 1.1//EN" "http://www.w3.org/Graphics/SVG/1.1/DTD/svg11.dtd">
<svg version="1.1" id="Layer_1" xmlns="http://www.w3.org/2000/svg" xmlns:xlink="http://www.w3.org/1999/xlink" x="0px" y="0px"
	 width="238.32px" height="238.32px" viewBox="0 0 238.32 238.32" enable-background="new 0 0 238.32 238.32" xml:space="preserve">
<g id="Layer_1_1_" display="none">
	
		<image display="inline" overflow="visible" opacity="0.4" enable-background="new    " width="319" height="344" xlink:href="11A9427364DC0140.jpeg"  transform="matrix(0.7476 0 0 0.75 360.1599 -369.8401)">
	</image>
</g>
<g>
	<g id="XMLID_1_">
		<g>
			<rect x="208.429" y="154.23" width="14.881" height="14.47"/>
			<rect x="208.429" y="139.75" width="14.881" height="14.48"/>
			<rect x="208.429" y="96.33" width="14.881" height="14.47"/>
			<rect x="208.429" y="81.85" width="14.881" height="14.48"/>
			<rect x="193.6" y="168.7" width="14.829" height="14.479"/>
			<rect x="193.6" y="154.23" fill="#FFE2CF" width="14.829" height="14.47"/>
			<rect x="193.6" y="139.75" fill="#FFE2CF" width="14.829" height="14.48"/>
			<rect x="193.6" y="125.28" width="14.829" height="14.47"/>
			<rect x="193.6" y="110.8" width="14.829" height="14.48"/>
			<rect x="193.6" y="96.33" fill="#FFC8A9" width="14.829" height="14.47"/>
			<rect x="193.6" y="81.85" fill="#FFC8A9" width="14.829" height="14.48"/>
			<rect x="193.6" y="67.38" width="14.829" height="14.47"/>
			<rect x="193.6" y="52.9" width="14.829" height="14.48"/>
			<rect x="178.719" y="197.65" width="14.881" height="14.479"/>
			<rect x="178.719" y="183.179" width="14.881" height="14.471"/>
			<rect x="178.719" y="168.7" width="14.881" height="14.479"/>
			<rect x="178.719" y="154.23" fill="#FFE2CF" width="14.881" height="14.47"/>
			<rect x="178.719" y="139.75" fill="#FFC8A9" width="14.881" height="14.48"/>
			<rect x="178.719" y="125.28" width="14.881" height="14.47"/>
			<rect x="178.719" y="110.8" width="14.881" height="14.48"/>
			<rect x="178.719" y="96.33" fill="#BF967F" width="14.881" height="14.47"/>
			<rect x="178.719" y="81.85" fill="#864A15" width="14.881" height="14.48"/>
			<rect x="178.719" y="67.38" fill="#864A15" width="14.881" height="14.47"/>
			<rect x="178.719" y="52.9" fill="#864A15" width="14.881" height="14.48"/>
			<rect x="178.719" y="38.43" width="14.881" height="14.47"/>
			<rect x="163.9" y="212.13" width="14.819" height="14.471"/>
			<rect x="163.9" y="197.65" fill="#F5B7B1" width="14.819" height="14.479"/>
			<rect x="163.9" y="183.179" fill="#E74C3C" width="14.819" height="14.471"/>
			<rect x="163.9" y="168.7" width="14.819" height="14.479"/>
			<rect x="163.9" y="154.23" width="14.819" height="14.47"/>
			<rect x="163.9" y="139.75" width="14.819" height="14.48"/>
			<rect x="163.9" y="125.28" width="14.819" height="14.47"/>
			<rect x="163.9" y="110.8" fill="#FFC8A9" width="14.819" height="14.48"/>
			<rect x="163.9" y="96.33" fill="#FFC8A9" width="14.819" height="14.47"/>
			<rect x="163.9" y="81.85" fill="#FFC8A9" width="14.819" height="14.48"/>
			<rect x="163.9" y="67.38" fill="#864A15" width="14.819" height="14.47"/>
			<rect x="163.9" y="52.9" fill="#864A15" width="14.819" height="14.48"/>
			<rect x="163.9" y="38.43" fill="#864A15" width="14.819" height="14.47"/>
			<rect x="163.9" y="23.95" width="14.819" height="14.48"/>
			<rect x="149.02" y="212.13" width="14.88" height="14.471"/>
			<rect x="149.02" y="197.65" fill="#F5B7B1" width="14.88" height="14.479"/>
			<rect x="149.02" y="183.179" width="14.88" height="14.471"/>
			<rect x="149.02" y="168.7" fill="#E74C3C" width="14.88" height="14.479"/>
			<rect x="149.02" y="154.23" fill="#E74C3C" width="14.88" height="14.47"/>
			<rect x="149.02" y="139.75" width="14.88" height="14.48"/>
			<rect x="149.02" y="125.28" fill="#FFD3BA" width="14.88" height="14.47"/>
			<rect x="149.02" y="110.8" fill="#FFE2CF" width="14.88" height="14.48"/>
			<rect x="149.02" y="96.33" fill="#FFE2CF" width="14.88" height="14.47"/>
			<rect x="149.02" y="81.85" fill="#FFE2CF" width="14.88" height="14.48"/>
			<rect x="149.02" y="67.38" fill="#FFD3BA" width="14.88" height="14.47"/>
			<rect x="149.02" y="52.9" fill="#864A15" width="14.88" height="14.48"/>
			<rect x="149.02" y="38.43" fill="#864A15" width="14.88" height="14.47"/>
			<rect x="149.02" y="23.95" fill="#864A15" width="14.88" height="14.48"/>
			<rect x="149.02" y="9.48" width="14.88" height="14.47"/>
			<rect x="134.19" y="212.13" width="14.83" height="14.471"/>
			<rect x="134.19" y="197.65" fill="#F5B7B1" width="14.83" height="14.479"/>
			<rect x="134.19" y="183.179" fill="#E74C3C" width="14.83" height="14.471"/>
			<rect x="134.19" y="168.7" fill="#E74C3C" width="14.83" height="14.479"/>
			<rect x="134.19" y="154.23" width="14.83" height="14.47"/>
			<rect x="134.19" y="139.75" width="14.83" height="14.48"/>
			<rect x="134.19" y="125.28" fill="#FFE2CF" width="14.83" height="14.47"/>
			<rect x="134.19" y="110.8" fill="#28282E" width="14.83" height="14.48"/>
			<rect x="134.19" y="96.33" fill="#28282E" width="14.83" height="14.47"/>
			<rect x="134.19" y="81.85" fill="#FFE2CF" width="14.83" height="14.48"/>
			<rect x="134.19" y="67.38" fill="#864A15" width="14.83" height="14.47"/>
			<rect x="134.19" y="52.9" fill="#864A15" width="14.83" height="14.48"/>
			<rect x="134.19" y="38.43" fill="#864A15" width="14.83" height="14.47"/>
			<rect x="134.19" y="23.95" fill="#864A15" width="14.83" height="14.48"/>
			<rect x="134.19" y="9.48" width="14.83" height="14.47"/>
			<rect x="119.31" y="197.65" width="14.88" height="14.479"/>
			<rect x="119.31" y="183.179" fill="#E74C3C" width="14.88" height="14.471"/>
			<rect x="119.31" y="168.7" width="14.88" height="14.479"/>
			<rect x="119.31" y="154.23" width="14.88" height="14.47"/>
			<rect x="119.31" y="139.75" fill="#0C2C26" width="14.88" height="14.48"/>
			<rect x="119.31" y="125.28" fill="#FF6E6E" width="14.88" height="14.47"/>
			<rect x="119.31" y="110.8" fill="#FFE2CF" width="14.88" height="14.48"/>
			<rect x="119.31" y="96.33" fill="#FFE2CF" width="14.88" height="14.47"/>
			<rect x="119.31" y="81.85" fill="#FFE2CF" width="14.88" height="14.48"/>
			<rect x="119.31" y="67.38" fill="#FFD3BA" width="14.88" height="14.47"/>
			<rect x="119.31" y="52.9" fill="#864A15" width="14.88" height="14.48"/>
			<rect x="119.31" y="38.43" fill="#864A15" width="14.88" height="14.47"/>
			<rect x="119.31" y="23.95" fill="#864A15" width="14.88" height="14.48"/>
			<rect x="119.31" y="9.48" width="14.88" height="14.47"/>
			<rect x="104.43" y="197.65" width="14.88" height="14.479"/>
			<rect x="104.43" y="183.179" fill="#E74C3C" width="14.88" height="14.471"/>
			<rect x="104.43" y="168.7" width="14.88" height="14.479"/>
			<rect x="104.43" y="154.23" width="14.88" height="14.47"/>
			<rect x="104.43" y="139.75" fill="#0C2C26" width="14.88" height="14.48"/>
			<rect x="104.43" y="125.28" fill="#FF6E6E" width="14.88" height="14.47"/>
			<rect x="104.43" y="110.8" fill="#FFE2CF" width="14.88" height="14.48"/>
			<rect x="104.43" y="96.33" fill="#FFE2CF" width="14.88" height="14.47"/>
			<rect x="104.43" y="81.85" fill="#FFE2CF" width="14.88" height="14.48"/>
			<rect x="104.43" y="67.38" fill="#FFD3BA" width="14.88" height="14.47"/>
			<rect x="104.43" y="52.9" fill="#864A15" width="14.88" height="14.48"/>
			<rect x="104.43" y="38.43" fill="#864A15" width="14.88" height="14.47"/>
			<rect x="104.43" y="23.95" fill="#864A15" width="14.88" height="14.48"/>
			<rect x="104.43" y="9.48" width="14.88" height="14.47"/>
			<rect x="89.6" y="212.13" width="14.83" height="14.471"/>
			<rect x="89.6" y="197.65" fill="#F5B7B1" width="14.83" height="14.479"/>
			<rect x="89.6" y="183.179" fill="#E74C3C" width="14.83" height="14.471"/>
			<rect x="89.6" y="168.7" fill="#E74C3C" width="14.83" height="14.479"/>
			<rect x="89.6" y="154.23" width="14.83" height="14.47"/>
			<rect x="89.6" y="139.75" width="14.83" height="14.48"/>
			<rect x="89.6" y="125.28" fill="#FFE2CF" width="14.83" height="14.47"/>
			<rect x="89.6" y="110.8" fill="#28282E" width="14.83" height="14.48"/>
			<rect x="89.6" y="96.33" fill="#28282E" width="14.83" height="14.47"/>
			<rect x="89.6" y="81.85" fill="#FFE2CF" width="14.83" height="14.48"/>
			<rect x="89.6" y="67.38" fill="#864A15" width="14.83" height="14.47"/>
			<rect x="89.6" y="52.9" fill="#864A15" width="14.83" height="14.48"/>
			<rect x="89.6" y="38.43" fill="#864A15" width="14.83" height="14.47"/>
			<rect x="89.6" y="23.95" fill="#864A15" width="14.83" height="14.48"/>
			<rect x="89.6" y="9.48" width="14.83" height="14.47"/>
			<rect x="74.72" y="212.13" width="14.88" height="14.471"/>
			<rect x="74.72" y="197.65" fill="#F5B7B1" width="14.88" height="14.479"/>
			<rect x="74.72" y="183.179" width="14.88" height="14.471"/>
			<rect x="74.72" y="168.7" fill="#E74C3C" width="14.88" height="14.479"/>
			<rect x="74.72" y="154.23" fill="#E74C3C" width="14.88" height="14.47"/>
			<rect x="74.72" y="139.75" width="14.88" height="14.48"/>
			<rect x="74.72" y="125.28" fill="#FFD3BA" width="14.88" height="14.47"/>
			<rect x="74.72" y="110.8" fill="#FFE2CF" width="14.88" height="14.48"/>
			<rect x="74.72" y="96.33" fill="#FFE2CF" width="14.88" height="14.47"/>
			<rect x="74.72" y="81.85" fill="#FFE2CF" width="14.88" height="14.48"/>
			<rect x="74.72" y="67.38" fill="#FFD3BA" width="14.88" height="14.47"/>
			<rect x="74.72" y="52.9" fill="#864A15" width="14.88" height="14.48"/>
			<rect x="74.72" y="38.43" fill="#864A15" width="14.88" height="14.47"/>
			<rect x="74.72" y="23.95" fill="#864A15" width="14.88" height="14.48"/>
			<rect x="74.72" y="9.48" width="14.88" height="14.47"/>
			<rect x="59.9" y="212.13" width="14.82" height="14.471"/>
			<rect x="59.9" y="197.65" fill="#F5B7B1" width="14.82" height="14.479"/>
			<rect x="59.9" y="183.179" fill="#E74C3C" width="14.82" height="14.471"/>
			<rect x="59.9" y="168.7" width="14.82" height="14.479"/>
			<rect x="59.9" y="154.23" width="14.82" height="14.47"/>
			<rect x="59.9" y="139.75" width="14.82" height="14.48"/>
			<rect x="59.9" y="125.28" width="14.82" height="14.47"/>
			<rect x="59.9" y="110.8" fill="#FFC8A9" width="14.82" height="14.48"/>
			<rect x="59.9" y="96.33" fill="#FFC8A9" width="14.82" height="14.47"/>
			<rect x="59.9" y="81.85" fill="#FFC8A9" width="14.82" height="14.48"/>
			<rect x="59.9" y="67.38" fill="#864A15" width="14.82" height="14.47"/>
			<rect x="59.9" y="52.9" fill="#864A15" width="14.82" height="14.48"/>
			<rect x="59.9" y="38.43" fill="#864A15" width="14.82" height="14.47"/>
			<rect x="59.9" y="23.95" width="14.82" height="14.48"/>
			<rect x="45.02" y="197.65" width="14.88" height="14.479"/>
			<rect x="45.02" y="183.179" width="14.88" height="14.471"/>
			<rect x="45.02" y="168.7" width="14.88" height="14.479"/>
			<rect x="45.02" y="154.23" fill="#FFE2CF" width="14.88" height="14.47"/>
			<rect x="45.02" y="139.75" fill="#FFC8A9" width="14.88" height="14.48"/>
			<rect x="45.02" y="125.28" width="14.88" height="14.47"/>
			<rect x="45.02" y="110.8" width="14.88" height="14.48"/>
			<rect x="45.02" y="96.33" fill="#BF967F" width="14.88" height="14.47"/>
			<rect x="45.02" y="81.85" fill="#864A15" width="14.88" height="14.48"/>
			<rect x="45.02" y="67.38" fill="#864A15" width="14.88" height="14.47"/>
			<rect x="45.02" y="52.9" fill="#864A15" width="14.88" height="14.48"/>
			<rect x="45.02" y="38.43" width="14.88" height="14.47"/>
			<rect x="30.19" y="168.7" width="14.83" height="14.479"/>
			<rect x="30.19" y="154.23" fill="#FFE2CF" width="14.83" height="14.47"/>
			<rect x="30.19" y="139.75" fill="#FFE2CF" width="14.83" height="14.48"/>
			<rect x="30.19" y="125.28" width="14.83" height="14.47"/>
			<rect x="30.19" y="110.8" width="14.83" height="14.48"/>
			<rect x="30.19" y="96.33" fill="#FFC8A9" width="14.83" height="14.47"/>
			<rect x="30.19" y="81.85" fill="#FFC8A9" width="14.83" height="14.48"/>
			<rect x="30.19" y="67.38" width="14.83" height="14.47"/>
			<rect x="30.19" y="52.9" width="14.83" height="14.48"/>
			<rect x="15.31" y="154.23" width="14.88" height="14.47"/>
			<rect x="15.31" y="139.75" width="14.88" height="14.48"/>
			<rect x="15.31" y="96.33" width="14.88" height="14.47"/>
			<rect x="15.31" y="81.85" width="14.88" height="14.48"/>
		</g>
		<g>
		</g>
	</g>
</g>
</svg>
